<svg xmlns="http://www.w3.org/2000/svg" width="236" height="68" viewBox="0 0 236 68">
  <g fill="#211B83" transform="translate(.624 .623)">
    <path d="M107.537,4.93684687 C126.997,4.70684687 143.074,20.0718469 144.292,39.6238469 L152.827,39.6238469 C151.624,17.3238469 133.354,-0.257153134 111.205,0.00284686607 C89.384,0.261846866 71.741,17.7548469 70.583,39.6238469 L71.671,39.6238469 C72.845,20.4508469 88.367,5.16684687 107.537,4.93684687"/>
    <path d="M100.201,14.8088469 C114.284,14.6408469 125.953,25.5758469 127.187,39.6228469 L135.739,39.6228469 C134.51,22.8238469 120.642,9.67484687 103.87,9.87384687 C87.347,10.0678469 73.949,23.1498469 72.76,39.6228469 L73.85,39.6228469 C75.048,25.8498469 86.328,14.9718469 100.201,14.8088469"/>
    <path d="M92.862 24.6778469C101.566 24.5748469 108.831 31.0848469 110.055 39.6218469L118.633 39.6218469C117.4 28.3278469 107.928 19.6078469 96.53 19.7428469 85.31 19.8768469 76.161 28.5498469 74.959 39.6218469L76.078 39.6218469C77.269 31.2528469 84.294 24.7788469 92.862 24.6778469M21.858 60.4668469L18.88 60.4668469 18.88 50.1158469C18.88 48.3258469 18.942 47.0398469 16.419 47.0398469 15.008 47.0398469 13.477 47.7558469 12.396 48.3258469L12.396 60.4668469 9.417 60.4668469 9.417 50.1158469C9.417 48.2948469 9.506 47.0398469 6.96 47.0398469 5.608 47.0398469 4.14 47.8148469 2.968 48.3538469L2.968 60.4658469 1.42108547e-14 60.4658469 1.42108547e-14 44.7678469 2.7 44.7678469 2.7 46.0828469C5.13 44.7678469 6.539 44.4678469 8.039 44.4678469 9.567 44.4678469 10.936 44.9758469 11.772 46.2028469 13.869 45.0678469 15.579 44.4398469 17.259 44.4398469 19.923 44.4398469 21.859 45.6648469 21.859 49.1308469L21.859 60.4668469 21.858 60.4668469zM40.082 53.5758469L40.082 52.7998469C40.082 47.7558469 37.895 44.4428469 32.475 44.4428469 28.433 44.4428469 25.016 46.7688469 25.016 52.2918469 25.016 57.6308469 28.072 60.7978469 33.616 60.7978469 35.353 60.7978469 36.968 60.7068469 38.856 60.2268469L38.856 58.1038469C37.328 58.3758469 36.01 58.5548469 34.572 58.5548469 32.296 58.5548469 28.791 58.4038469 28.283 53.5758469L40.082 53.5758469zM36.699 51.4548469L28.313 51.4548469C28.402 48.3808469 29.808 46.5608469 32.475 46.5608469 35.618 46.5608469 36.639 48.6188469 36.699 51.4548469M56.5 38.0378469L53.521 38.0378469 53.521 44.5318469C51.813 44.2918469 50.737 44.3208469 50.109 44.3208469 44.958 44.3208469 42.107 47.7138469 42.107 52.7268469 42.107 58.0098469 45.828 60.7938469 50.799 60.7938469 52.594 60.7938469 54.921 60.5248469 56.5 60.2548469 56.531 56.7238469 56.5 43.8718469 56.5 38.0378469M53.521 58.3688469C52.235 58.4888469 51.485 58.5168469 50.917 58.5168469 47.326 58.5168469 45.319 56.1308469 45.319 52.6378469 45.319 48.5478469 47.237 46.6408469 50.766 46.6408469 51.427 46.6408469 52.266 46.6978469 53.521 46.9068469L53.521 58.3688469zM73.674 52.6178469C73.674 47.3468469 70.648 44.3198469 65.848 44.3198469 65.397 44.3198469 64.197 44.3198469 62.338 44.5618469L62.338 38.0358469 59.359 38.0358469 59.359 60.2848469C61.415 60.6418469 63.718 60.7928469 64.978 60.7928469 69.96 60.7928469 73.674 57.8288469 73.674 52.6178469M70.5 52.5868469C70.5 56.2118469 68.64 58.5168469 64.979 58.5168469 64.44 58.5168469 63.597 58.5168469 62.31 58.3378469L62.31 46.8078469C63.42 46.6568469 64.378 46.5988469 65.037 46.5988469 68.789 46.5988469 70.5 48.7268469 70.5 52.5868469M92.262 52.4978469C92.262 47.4708469 89.336 44.3588469 84.343 44.3588469 79.314 44.3588469 76.4 47.4698469 76.4 52.4978469 76.4 57.4068469 79.283 60.8378471 84.343 60.8378471 88.98 60.8388469 92.262 57.3788469 92.262 52.4978469M89.071 52.4978469C89.071 56.2118469 87.454 58.6048469 84.344 58.6048469 81.231 58.6048469 79.614 56.2118469 79.614 52.4978469 79.614 48.8178469 81.26 46.6038469 84.344 46.6038469 87.425 46.6038469 89.071 48.8178469 89.071 52.4978469M98.162 48.5608469L98.162 60.4668469 95.181 60.4668469 95.181 44.7278469 97.895 44.7278469 97.895 46.2568469C99.809 44.9968469 101.426 44.6078469 104.213 44.6078469L104.213 47.3318469C101.214 47.3318469 99.748 47.4508469 98.162 48.5608469M120.598 46.7088469L120.598 44.2288469 113.964 44.6188469C113.393 44.5278469 112.737 44.4398469 111.776 44.4398469 108.003 44.4398469 105.163 46.2608469 105.163 49.9648469 105.163 52.5928469 106.63 53.7868469 107.706 54.3818469 106.239 55.4238469 105.461 56.4468469 105.461 57.9458469 105.461 60.7608469 108.514 61.0308469 111.628 60.9988469L113.756 60.9988469C114.804 61.0308469 117.101 60.9988469 117.101 62.4888469 117.101 63.8258469 114.743 64.8398469 111.537 64.8398469 109.891 64.8398469 107.737 64.5108469 106.031 64.2148469L106.031 66.4928469C108.185 66.9428469 110.159 67.0318469 112.047 67.0318469 116.861 67.0318469 120.268 65.4698469 120.268 62.0408469 120.268 57.1678469 113.094 58.6068469 110.011 58.2788469 108.873 58.1278469 108.453 57.8258469 108.453 57.3448469 108.453 56.4748469 109.412 55.7538469 110.102 55.3038469 110.638 55.3928469 111.209 55.4528469 111.748 55.4528469 117.189 55.4528469 118.5 52.2948469 118.5 49.9368469 118.5 48.4418469 117.965 47.2768469 117.16 46.4998469 118.29 46.5888469 119.939 46.7088469 120.598 46.7088469M115.401 49.8168469C115.401 52.2338469 114.174 53.2498469 111.776 53.2498469 109.74 53.2498469 108.302 52.2058469 108.302 49.8168469 108.302 47.8128469 109.562 46.5598469 111.776 46.5598469 113.964 46.5598469 115.401 47.7248469 115.401 49.8168469M135.056 60.4328469L135.056 49.6528469C135.056 45.0448469 132.238 44.4438469 127.873 44.4438469 126.078 44.4438469 124.257 44.6258469 122.348 45.0148469L122.348 47.3548469C124.018 47.0588469 125.87 46.7288469 127.544 46.7288469 131.908 46.7288469 132.059 47.5348469 132.059 50.8408469 131.011 50.8408469 130.204 50.7518469 129.517 50.7518469 126.229 50.7518469 121.275 50.7818469 121.275 55.6488469 121.275 59.8948469 124.108 60.7928931 128.173 60.7928931 130.323 60.7948469 132.386 60.7328469 135.056 60.4328469M132.087 58.4878469C130.563 58.5788469 129.965 58.6378469 129.159 58.6378469 126.766 58.6378469 124.374 58.3668469 124.374 55.7408469 124.374 53.4428469 126.286 52.9638469 129.427 52.9638469 129.874 52.9638469 130.803 53.0238469 132.086 53.0528469L132.086 58.4878469 132.087 58.4878469zM142.008 48.5608469L142.008 60.4668469 139.03 60.4668469 139.03 44.7278469 141.742 44.7278469 141.742 46.2568469C143.654 44.9968469 145.273 44.6078469 148.058 44.6078469L148.058 47.3318469C145.063 47.3318469 143.597 47.4508469 142.008 48.5608469M154.015 60.7978469C152.16 60.7978469 150.397 60.5578469 148.694 60.2298469L148.694 57.7838469C150.518 58.1748469 152.069 58.5008469 153.625 58.5008469 155.841 58.5008469 158.055 57.9638469 158.055 56.2028469 158.055 54.0818469 154.851 53.9018469 153.296 53.5128469 151.114 52.9468469 148.603 52.1098469 148.603 49.0628469 148.603 45.4688469 151.922 44.4458469 155.063 44.4458469 157.308 44.4458469 158.894 44.7148469 160.121 44.8958469L160.121 47.2708469C158.655 47.0018469 157.097 46.7618469 155.602 46.7618469 154.076 46.7618469 151.622 47.0018469 151.622 48.8538469 151.622 52.2588469 161.165 49.8068469 161.165 55.8138469 161.165 58.8908469 158.654 60.7978469 154.015 60.7978469"/>
    <polygon points="174.913 60.467 167.098 52.208 167.098 60.467 164.16 60.467 164.16 38.035 167.098 38.035 167.098 51.372 174.314 44.763 178.329 44.763 170.329 51.491 179.198 60.467"/>
    <path d="M194.4,52.4978469 C194.4,47.4708469 191.474,44.3588469 186.479,44.3588469 C181.45,44.3588469 178.539,47.4698469 178.539,52.4978469 C178.539,57.4068469 181.422,60.8378471 186.479,60.8378471 C191.118,60.8388469 194.4,57.3788469 194.4,52.4978469 M191.208,52.4978469 C191.208,56.2118469 189.591,58.6048469 186.478,58.6048469 C183.367,58.6048469 181.751,56.2118469 181.751,52.4978469 C181.751,48.8178469 183.397,46.6038469 186.478,46.6038469 C189.559,46.6038469 191.208,48.8178469 191.208,52.4978469"/>
    <rect width="2.979" height="22.432" x="197.018" y="38.035"/>
    <path d="M216.616 60.4328469L216.616 49.6528469C216.616 45.0448469 213.798 44.4438469 209.433 44.4438469 207.638 44.4438469 205.818 44.6258469 203.908 45.0148469L203.908 47.3548469C205.578 47.0588469 207.43 46.7288469 209.104 46.7288469 213.468 46.7288469 213.619 47.5348469 213.619 50.8408469 212.571 50.8408469 211.765 50.7518469 211.077 50.7518469 207.789 50.7518469 202.835 50.7818469 202.835 55.6488469 202.835 59.8948469 205.668 60.7928931 209.733 60.7928931 211.883 60.7948469 213.946 60.7328469 216.616 60.4328469M213.647 58.4878469C212.123 58.5788469 211.525 58.6378469 210.719 58.6378469 208.326 58.6378469 205.934 58.3668469 205.934 55.7408469 205.934 53.4428469 207.846 52.9638469 210.984 52.9638469 211.436 52.9638469 212.363 53.0238469 213.646 53.0528469L213.646 58.4878469 213.647 58.4878469zM231.411 60.4668469L231.411 50.4578469C231.411 48.7858469 231.383 46.9648469 228.686 46.9648469 227.163 46.9648469 224.917 47.8298469 223.568 48.3978469L223.568 60.4658469 220.595 60.4658469 220.595 44.7438469 223.36 44.7438469 223.36 46.1838469C226.474 44.8008469 227.549 44.4448469 229.704 44.4448469 231.947 44.4448469 234.417 45.7648469 234.417 49.2348469L234.417 60.4668469 231.411 60.4668469z"/>
  </g>
</svg>
